<svg xmlns="http://www.w3.org/2000/svg" width="511.999" height="511.968" viewBox="0 0 511.999 511.968">
  <g id="achievement-success-svgrepo-com" transform="translate(0.001 -0.017)">
    <path id="패스_5" data-name="패스 5" d="M506.311,473.468,360.017,288.126,279.256,185.81l-5.005-6.339a23.272,23.272,0,0,0-36.532,0l-5.005,6.339L151.953,288.125,5,474.3A23.257,23.257,0,0,0,2.33,498.863q.366.752.777,1.471a23.376,23.376,0,0,0,1.834,2.721,23.277,23.277,0,0,0,4.64,4.478q.651.473,1.333.9a23.284,23.284,0,0,0,2.361,1.283c.644.307,1.3.6,1.97.842a23.233,23.233,0,0,0,8.025,1.427H488.727a23.273,23.273,0,0,0,17.584-38.517Z" fill="#a78966"/>
    <path id="패스_6" data-name="패스 6" d="M255.985,170.618a23.273,23.273,0,0,1,18.266,8.852l5.005,6.339V116.372a23.271,23.271,0,0,1-23.271,23.271H232.714v46.166l5.005-6.339A23.266,23.266,0,0,1,255.985,170.618Z" fill="#a9a8ae"/>
    <path id="패스_7" data-name="패스 7" d="M279.256,116.373V23.288A23.271,23.271,0,0,0,255.985.017h-108.6a23.271,23.271,0,0,0-23.271,23.271v93.085a23.271,23.271,0,0,0,23.271,23.271h108.6A23.271,23.271,0,0,0,279.256,116.373Z" fill="#ffaf01"/>
    <path id="패스_8" data-name="패스 8" d="M170.22,279.272a23.439,23.439,0,0,1,11.527,3.03l3.073,1.744,40.829,23.164v0l19.956-9.969a23.013,23.013,0,0,1,2.5-1.072c.464-.166.937-.281,1.407-.417.393-.113.777-.254,1.174-.348a22.83,22.83,0,0,1,2.591-.453l.04-.006a23,23,0,0,1,2.475-.144c.062,0,.124-.011.188-.011h0a23.267,23.267,0,0,1,10.435,2.457l19.911,9.962,40.83-23.146,3.111-1.764a23.273,23.273,0,0,1,29.744,5.827L279.256,185.81l-5.005-6.339a23.272,23.272,0,0,0-36.532,0l-5.005,6.339L151.953,288.125A23.27,23.27,0,0,1,170.22,279.272Z" fill="#d6d5d8"/>
    <path id="패스_9" data-name="패스 9" d="M255.8,294.8a23.823,23.823,0,0,0-2.475.144l-.04.006a23.281,23.281,0,0,0-2.591.453c-.4.092-.782.233-1.174.348-.47.137-.943.251-1.407.417a23.446,23.446,0,0,0-2.5,1.072l-19.956,9.969v0l-40.829-23.164L181.75,282.3a23.331,23.331,0,0,0-29.793,5.822L5.006,474.3a23.271,23.271,0,0,0,18.266,37.689H255.985v-217.2C255.921,294.788,255.859,294.8,255.8,294.8Z" fill="#806749"/>
    <g id="그룹_8" data-name="그룹 8">
      <path id="패스_10" data-name="패스 10" d="M255.8,294.8c.062,0,.124-.011.188-.011h0C255.921,294.788,255.859,294.8,255.8,294.8Z" fill="#af2e08"/>
      <path id="패스_11" data-name="패스 11" d="M250.691,295.4c-.4.092-.782.233-1.174.348C249.909,295.637,250.294,295.495,250.691,295.4Z" fill="#af2e08"/>
      <path id="패스_12" data-name="패스 12" d="M248.11,296.167a23.446,23.446,0,0,0-2.5,1.072A23.446,23.446,0,0,1,248.11,296.167Z" fill="#af2e08"/>
      <path id="패스_13" data-name="패스 13" d="M253.322,294.943l-.04.006C253.3,294.948,253.308,294.945,253.322,294.943Z" fill="#af2e08"/>
    </g>
    <path id="패스_14" data-name="패스 14" d="M255.985,294.788h0Z" fill="#db380e"/>
  </g>
</svg>
