<svg id="heart-svgrepo-com" xmlns="http://www.w3.org/2000/svg" width="206.49" height="206.49" viewBox="0 0 206.49 206.49">
  <g id="그룹_9" data-name="그룹 9">
    <path id="패스_22" data-name="패스 22" d="M103.245,0A103.245,103.245,0,1,1,0,103.245,103.245,103.245,0,0,1,103.245,0Z" transform="translate(0 0)" fill="#ffdc91"/>
    <path id="패스_19" data-name="패스 19" d="M103.244,0h0V206.49h0a103.245,103.245,0,1,0,0-206.49Z" fill="#ffaf01"/>
  </g>
  <g id="그룹_11" data-name="그룹 11">
    <g id="그룹_10" data-name="그룹 10">
      <path id="패스_20" data-name="패스 20" d="M103.243,157.459l-3.19-2.061c-6.935-4.067-30.219-24.655-40.331-34.767C47.191,108.1,46.164,98.35,46.413,89.442,46.732,78,56.8,64.993,70.247,61.949a37.187,37.187,0,0,1,8.174-.955c7.527,0,14.216,2.487,21.052,7.828a27.3,27.3,0,0,1,3.771,3.575,27.358,27.358,0,0,1,3.771-3.575c6.836-5.341,13.524-7.828,21.052-7.828a37.107,37.107,0,0,1,8.171.955c13.445,3.044,23.077,15.468,23.835,27.493.561,8.893-.775,18.657-13.307,31.189-10.114,10.112-33.4,30.7-40.332,34.766ZM78.421,68a30.148,30.148,0,0,0-6.628.782c-10.038,2.273-17.81,12.641-18.38,20.774-.56,8,.639,15.512,11.258,26.131,11.058,11.056,32.584,29.712,38.572,33.465,5.984-3.75,27.515-22.408,38.574-33.465,10.619-10.621,11.783-18.134,11.256-26.131-.591-8.967-8.341-18.5-18.38-20.774-8.7-1.969-15.846-.315-23.367,5.562a20.812,20.812,0,0,0-5.075,5.8l-3.009,5.06-3.008-5.061a20.8,20.8,0,0,0-5.072-5.8C89.623,70.011,84.3,68,78.421,68Z" fill="#fff"/>
    </g>
    <path id="패스_21" data-name="패스 21" d="M160.073,89.442c-.758-12.025-10.39-24.449-23.835-27.493a37.168,37.168,0,0,0-8.171-.955c-7.527,0-14.216,2.487-21.052,7.828a27.284,27.284,0,0,0-3.735,3.538V85.132l2.971-5a20.858,20.858,0,0,1,5.075-5.8c7.521-5.877,14.67-7.531,23.367-5.562,10.039,2.273,17.789,11.807,18.38,20.774.527,8-.637,15.51-11.256,26.131-11.038,11.037-32.505,29.642-38.537,33.441v8.312l3.154-2.038c6.933-4.065,30.218-24.654,40.332-34.766C159.3,108.1,160.634,98.336,160.073,89.442Z" fill="#ffdc91"/>
  </g>
</svg>
